# xmcd CD database file
#
# Track frame offsets:
#	150
#	36580
#	55337
#	91357
#	100777
#	128690
#	146610
#	180362
#	219455
#	255612
#	270327
#	315752
#
# Disc length: 4350 seconds
#
# Revision: 0
# Processed by: cddbd v1.5.1PL2 Copyright (c) Steve Scherf et al.
# Submitted via: CDex 1.51
#
DISCID=9e10fc0c
DTITLE=学園ヘヴン３ - 学園ヘヴン３　〜Happy☆パラダイス〜
DYEAR=2005
DGENRE=未分類 (一般)
TTITLE0=[啓太&滝１]ホテルに到着!
TTITLE1=[啓太&滝２]ふたりでおフロ
TTITLE2=[啓太&滝３]絶対、やめないよ
TTITLE3=[啓太&滝]４ガーデンパーティー
TTITLE4=[啓太&七条１]夜のピクニック
TTITLE5=[啓太&七条２]祝福の花
TTITLE6=[啓太&七条３]もうひとつの言い伝え
TTITLE7=[啓太&七条４]夜明け前
TTITLE8=[啓太&成瀬1]ビーチのヒーロー
TTITLE9=[啓太&成瀬２]個人練習
TTITLE10=[啓太&成瀬３]愛の
TTITLE11=[啓太&成瀬４]君とならどこでも
EXTD=YEAR: 2005
EXTT0=
EXTT1=
EXTT2=
EXTT3=
EXTT4=
EXTT5=
EXTT6=
EXTT7=
EXTT8=
EXTT9=
EXTT10=
EXTT11=
PLAYORDER=
